<?xml version="1.0" encoding="iso-8859-1"?>
<!-- Generator: Adobe Illustrator 19.0.0, SVG Export Plug-In . SVG Version: 6.00 Build 0)  -->
<svg version="1.1" id="Layer_1" xmlns="http://www.w3.org/2000/svg" xmlns:xlink="http://www.w3.org/1999/xlink" x="0px" y="0px"
	 viewBox="0 0 512 512" style="enable-background:new 0 0 512 512;" xml:space="preserve">
<g>
	<g>
		<path d="M339.661,301.735h-2.644c-1.713-34.074-21.855-63.373-50.636-78.106c9.685-8.09,15.861-20.248,15.861-33.826
			c0-7.253-1.773-14.095-4.889-20.135l9.599-9.599c3.983-3.983,3.983-10.441,0-14.425c-3.983-3.982-10.441-3.982-14.425,0
			l-8.503,8.503c-4.623-3.362-9.922-5.843-15.651-7.206v-11.532c0-5.632-4.566-10.199-10.199-10.199
			c-5.633,0-10.199,4.567-10.199,10.199v11.532c-5.607,1.334-10.799,3.74-15.351,6.993l-8.29-8.29
			c-3.983-3.982-10.441-3.982-14.425,0c-3.983,3.983-3.983,10.441,0,14.425l9.26,9.26c-3.227,6.123-5.064,13.087-5.064,20.475
			c0,8.708,2.549,16.827,6.925,23.669H199.61v-80.116c0-5.632-4.566-10.199-10.199-10.199c-0.017,0-0.034,0.001-0.05,0.001v-14.883
			h0.902c5.633,0,10.199-4.567,10.199-10.199v-25.9c0-3.963-2.265-7.391-5.569-9.079c1.206-3.223,1.868-6.709,1.868-10.347
			c0-17.992,8.385-38.433,8.465-38.628c1.521-3.65,0.795-7.85-1.864-10.779c-2.659-2.929-6.771-4.056-10.55-2.891
			c-5.661,1.742-55.301,18.006-55.301,52.298c0,3.638,0.663,7.124,1.868,10.347c-3.302,1.688-5.569,5.116-5.569,9.079v25.901
			c0,5.632,4.566,10.199,10.199,10.199h0.901v40.755c-4.287,7.488-6.752,16.147-6.752,25.377v111.868
			c0,24.769,17.662,45.487,41.052,50.23V501.8h0.003c0,5.632,4.566,10.199,10.199,10.199h137.525
			c5.633,0,10.199-4.567,10.199-10.199v-87.3h2.524c21.245,0,38.527-17.284,38.527-38.527v-35.71
			C378.189,319.019,360.905,301.735,339.661,301.735z M179.476,28.388c-1.735,7.444-3.111,15.99-3.111,24.363
			c0,5.087-4.139,9.227-9.226,9.227c-5.087,0-9.226-4.14-9.226-9.227C157.913,43.009,168.584,34.436,179.476,28.388z
			 M179.214,223.672v91.726c-12.015-4.221-20.653-15.683-20.653-29.122V174.409c0-5.958,1.704-11.522,4.641-16.244
			c0.29-0.377,0.557-0.773,0.792-1.19c3.681-5.349,8.989-9.496,15.22-11.686V223.672z M165.312,129.195v-20.919h3.652v19.15
			C167.721,127.97,166.502,128.557,165.312,129.195z M180.065,87.878h-25.853v-5.503h25.853V87.878z M258.176,166.135
			c13.051,0,23.669,10.617,23.669,23.668c0,13.052-10.618,23.669-23.669,23.669c-13.051,0-23.669-10.617-23.669-23.669
			C234.506,176.752,245.125,166.135,258.176,166.135z M199.612,412.694l117.126-74.162v30.698l-117.126,74.162V412.694z
			 M199.612,491.601v-24.065l117.126-74.162v10.927v87.3H199.612z M316.739,311.934v2.453L199.613,388.55v-61.221v-93.458h44.537
			c40.026,0,72.59,32.564,72.59,72.59V311.934z M357.791,375.973c0,9.997-8.133,18.129-18.129,18.129h-2.524v-19.259v-52.71h2.524
			c9.996,0,18.129,8.133,18.129,18.129V375.973z"/>
	</g>
</g>
<g>
	<g>
		<path d="M221.229,251.445c-5.633,0-10.199,4.567-10.199,10.199v3.08c0,5.632,4.566,10.199,10.199,10.199
			s10.199-4.567,10.199-10.199v-3.08C231.428,256.012,226.862,251.445,221.229,251.445z"/>
	</g>
</g>
<g>
	<g>
		<path d="M221.229,286.341c-5.633,0-10.199,4.567-10.199,10.199v51.315c0,5.632,4.566,10.199,10.199,10.199
			s10.199-4.567,10.199-10.199V296.54C231.428,290.908,226.862,286.341,221.229,286.341z"/>
	</g>
</g>
<g>
</g>
<g>
</g>
<g>
</g>
<g>
</g>
<g>
</g>
<g>
</g>
<g>
</g>
<g>
</g>
<g>
</g>
<g>
</g>
<g>
</g>
<g>
</g>
<g>
</g>
<g>
</g>
<g>
</g>
</svg>
